<svg class="main-svg" xmlns="http://www.w3.org/2000/svg" xmlns:xlink="http://www.w3.org/1999/xlink" width="400" height="500" style="" viewBox="0 0 400 500"><rect x="0" y="0" width="400" height="500" style="fill: rgb(0, 0, 0); fill-opacity: 0;"/><defs id="defs-f856f6"><g class="clips"><clipPath id="clipf856f6xyplot" class="plotclip"><rect width="204" height="320"/></clipPath><clipPath class="axesclip" id="clipf856f6x"><rect x="80" y="0" width="204" height="500"/></clipPath><clipPath class="axesclip" id="clipf856f6y"><rect x="0" y="100" width="400" height="320"/></clipPath><clipPath class="axesclip" id="clipf856f6xy"><rect x="80" y="100" width="204" height="320"/></clipPath></g><g class="gradients"/><g class="patterns"/></defs><g class="bglayer"><rect class="bg" x="80" y="100" width="204" height="320" style="fill: rgb(0, 0, 0); fill-opacity: 0; stroke-width: 0;"/></g><g class="layer-below"><g class="imagelayer"/><g class="shapelayer"/></g><g class="cartesianlayer"><g class="subplot xy"><g class="layer-subplot"><g class="shapelayer"/><g class="imagelayer"/></g><g class="minor-gridlayer"><g class="x"/><g class="y"/></g><g class="gridlayer"><g class="x"/><g class="y"/></g><g class="zerolinelayer"/><g class="layer-between"><g class="shapelayer"/><g class="imagelayer"/></g><path class="xlines-below"/><path class="ylines-below"/><g class="overlines-below"/><g class="xaxislayer-below"/><g class="yaxislayer-below"/><g class="overaxes-below"/><g class="overplot"><g class="xy" transform="translate(80,100)" clip-path="url(#clipf856f6xyplot)"><g class="scatterlayer mlayer"><g class="trace scatter trace5d1629" style="stroke-miterlimit: 2; opacity: 1;"><g class="fills"/><g class="errorbars"/><g class="lines"/><g class="points"/><g class="text"/></g><g class="trace scatter traced103e0" style="stroke-miterlimit: 2; opacity: 1;"><g class="fills"/><g class="errorbars"/><g class="lines"/><g class="points"/><g class="text"/></g><g class="trace scatter trace16840d" style="stroke-miterlimit: 2; opacity: 1;"><g class="fills"/><g class="errorbars"/><g class="lines"/><g class="points"/><g class="text"/></g><g class="trace scatter traced48d0b" style="stroke-miterlimit: 2; opacity: 1;"><g class="fills"/><g class="errorbars"/><g class="lines"/><g class="points"/><g class="text"/></g><g class="trace scatter tracecb425d" style="stroke-miterlimit: 2; opacity: 1;"><g class="fills"/><g class="errorbars"/><g class="lines"/><g class="points"/><g class="text"/></g><g class="trace scatter trace96a623" style="stroke-miterlimit: 2; opacity: 1;"><g class="fills"/><g class="errorbars"/><g class="lines"/><g class="points"/><g class="text"/></g><g class="trace scatter traceaf02f2" style="stroke-miterlimit: 2; opacity: 1;"><g class="fills"/><g class="errorbars"/><g class="lines"/><g class="points"/><g class="text"/></g><g class="trace scatter trace2d4afb" style="stroke-miterlimit: 2; opacity: 1;"><g class="fills"/><g class="errorbars"/><g class="lines"/><g class="points"/><g class="text"/></g><g class="trace scatter trace744cdd" style="stroke-miterlimit: 2; opacity: 1;"><g class="fills"/><g class="errorbars"/><g class="lines"/><g class="points"/><g class="text"/></g><g class="trace scatter trace208270" style="stroke-miterlimit: 2; opacity: 1;"><g class="fills"/><g class="errorbars"/><g class="lines"/><g class="points"/><g class="text"/></g><g class="trace scatter trace7cda03" style="stroke-miterlimit: 2; opacity: 1;"><g class="fills"/><g class="errorbars"/><g class="lines"/><g class="points"/><g class="text"/></g></g></g></g><path class="xlines-above crisp" d="M0,0" style="fill: none;"/><path class="ylines-above crisp" d="M0,0" style="fill: none;"/><g class="overlines-above"/><g class="xaxislayer-above"/><g class="yaxislayer-above"/><g class="overaxes-above"/></g></g><g class="polarlayer"/><g class="smithlayer"/><g class="ternarylayer"/><g class="geolayer"/><g class="funnelarealayer"/><g class="pielayer"/><g class="iciclelayer"/><g class="treemaplayer"/><g class="sunburstlayer"/><g class="glimages"/><g class="sankey" transform="translate(80,100)matrix(1 0 0 1 0 0)" style="box-sizing: content-box; position: absolute; left: 0px; shape-rendering: geometricprecision; pointer-events: none;"><g class="sankey-links" style="fill: none;"><path class="sankey-link" d="M20,-2.2737367544323206e-13C56,-2.2737367544323206e-13 56,0 92,0L92,15.462184873949582C56,15.462184873949582 56,15.462184873949354 20,15.462184873949354Z" style="stroke: rgb(68, 68, 68); stroke-opacity: 1; fill: rgb(127, 60, 141); fill-opacity: 0.4; stroke-width: 0; opacity: 1;"/><path class="sankey-link" d="M20,36.13445378151238C56,36.13445378151238 56,55.012903649561466 92,55.012903649561466L92,71.8196263386371C56,71.8196263386371 56,52.941176470588005 20,52.941176470588005Z" style="stroke: rgb(68, 68, 68); stroke-opacity: 1; fill: rgb(17, 165, 121); fill-opacity: 0.4; stroke-width: 0; opacity: 1;"/><path class="sankey-link" d="M20,73.61344537815106C56,73.61344537815106 56,72.49189524620012 92,72.49189524620012L92,87.9540801201497C56,87.9540801201497 56,89.07563025210064 20,89.07563025210064Z" style="stroke: rgb(68, 68, 68); stroke-opacity: 1; fill: rgb(57, 105, 172); fill-opacity: 0.4; stroke-width: 0; opacity: 1;"/><path class="sankey-link" d="M20,195.4621848739494C56,195.4621848739494 56,183.7599240006115 92,183.7599240006115L92,201.23891559725016C56,201.23891559725016 56,212.94117647058806 20,212.94117647058806Z" style="stroke: rgb(68, 68, 68); stroke-opacity: 1; fill: rgb(242, 183, 1); fill-opacity: 0.4; stroke-width: 0; opacity: 1;"/><path class="sankey-link" d="M20,144.53781512605025C56,144.53781512605025 56,152.83555425271234 92,152.83555425271234L92,168.29773912666192C56,168.29773912666192 56,159.99999999999983 20,159.99999999999983Z" style="stroke: rgb(68, 68, 68); stroke-opacity: 1; fill: rgb(231, 63, 116); fill-opacity: 0.4; stroke-width: 0; opacity: 1;"/><path class="sankey-link" d="M20,159.99999999999983C56,159.99999999999983 56,168.29773912666192 92,168.29773912666192L92,182.41538618548546C56,182.41538618548546 56,174.11764705882337 20,174.11764705882337Z" style="stroke: rgb(68, 68, 68); stroke-opacity: 1; fill: rgb(128, 186, 90); fill-opacity: 0.4; stroke-width: 0; opacity: 1;"/><path class="sankey-link" d="M20,109.74789915966367C56,109.74789915966367 56,88.62634902771272 92,88.62634902771272L92,102.74399608653626C56,102.74399608653626 56,123.86554621848721 20,123.86554621848721Z" style="stroke: rgb(68, 68, 68); stroke-opacity: 1; fill: rgb(230, 131, 16); fill-opacity: 0.4; stroke-width: 0; opacity: 1;"/><path class="sankey-link" d="M20,233.61344537815108C56,233.61344537815108 56,233.61344537815114 92,233.61344537815114L92,248.4033613445377C56,248.4033613445377 56,248.40336134453764 20,248.40336134453764Z" style="stroke: rgb(68, 68, 68); stroke-opacity: 1; fill: rgb(0, 134, 149); fill-opacity: 0.4; stroke-width: 0; opacity: 1;"/><path class="sankey-link" d="M20,305.21008403361344C56,305.21008403361344 56,305.21008403361344 92,305.21008403361344L92,319.327731092437C56,319.327731092437 56,319.327731092437 20,319.327731092437Z" style="stroke: rgb(68, 68, 68); stroke-opacity: 1; fill: rgb(207, 28, 144); fill-opacity: 0.4; stroke-width: 0; opacity: 1;"/><path class="sankey-link" d="M20,269.0756302521008C56,269.0756302521008 56,269.0756302521008 92,269.0756302521008L92,284.53781512605036C56,284.53781512605036 56,284.53781512605036 20,284.53781512605036Z" style="stroke: rgb(68, 68, 68); stroke-opacity: 1; fill: rgb(249, 123, 114); fill-opacity: 0.4; stroke-width: 0; opacity: 1;"/><path class="sankey-link" d="M20,15.462184873949354C56,15.462184873949354 56,15.462184873949582 92,15.462184873949582L92,16.134453781512608C56,16.134453781512608 56,16.13445378151238 20,16.13445378151238Z" style="stroke: rgb(0, 0, 0); stroke-opacity: 1; fill: rgb(0, 0, 0); fill-opacity: 1; stroke-width: 1; opacity: 1;"/><path class="sankey-link" d="M20,52.941176470588005C56,52.941176470588005 56,71.8196263386371 92,71.8196263386371L92,72.49189524620012C56,72.49189524620012 56,53.61344537815103 20,53.61344537815103Z" style="stroke: rgb(0, 0, 0); stroke-opacity: 1; fill: rgb(0, 0, 0); fill-opacity: 1; stroke-width: 1; opacity: 1;"/><path class="sankey-link" d="M20,89.07563025210064C56,89.07563025210064 56,87.9540801201497 92,87.9540801201497L92,88.62634902771272C56,88.62634902771272 56,89.74789915966366 20,89.74789915966366Z" style="stroke: rgb(0, 0, 0); stroke-opacity: 1; fill: rgb(0, 0, 0); fill-opacity: 1; stroke-width: 1; opacity: 1;"/><path class="sankey-link" d="M20,212.94117647058806C56,212.94117647058806 56,201.23891559725016 92,201.23891559725016L92,201.91118450481318C56,201.91118450481318 56,213.61344537815108 20,213.61344537815108Z" style="stroke: rgb(0, 0, 0); stroke-opacity: 1; fill: rgb(0, 0, 0); fill-opacity: 1; stroke-width: 1; opacity: 1;"/><path class="sankey-link" d="M20,174.11764705882337C56,174.11764705882337 56,182.41538618548546 92,182.41538618548546L92,183.7599240006115C56,183.7599240006115 56,175.4621848739494 20,175.4621848739494Z" style="stroke: rgb(68, 68, 68); stroke-opacity: 1; fill: rgb(0, 0, 0); fill-opacity: 1; stroke-width: 0; opacity: 1;"/><path class="sankey-link" d="M20,123.86554621848721C56,123.86554621848721 56,102.74399608653626 92,102.74399608653626L92,103.41626499409928C56,103.41626499409928 56,124.53781512605023 20,124.53781512605023Z" style="stroke: rgb(0, 0, 0); stroke-opacity: 1; fill: rgb(0, 0, 0); fill-opacity: 1; stroke-width: 1; opacity: 1;"/><path class="sankey-link" d="M20,248.40336134453764C56,248.40336134453764 56,248.4033613445377 92,248.4033613445377L92,249.07563025210072C56,249.07563025210072 56,249.07563025210067 20,249.07563025210067Z" style="stroke: rgb(0, 0, 0); stroke-opacity: 1; fill: rgb(0, 0, 0); fill-opacity: 1; stroke-width: 1; opacity: 1;"/><path class="sankey-link" d="M20,319.327731092437C56,319.327731092437 56,319.327731092437 92,319.327731092437L92,320.00000000000006C56,320.00000000000006 56,320.00000000000006 20,320.00000000000006Z" style="stroke: rgb(0, 0, 0); stroke-opacity: 1; fill: rgb(0, 0, 0); fill-opacity: 1; stroke-width: 1; opacity: 1;"/><path class="sankey-link" d="M20,284.53781512605036C56,284.53781512605036 56,284.53781512605036 92,284.53781512605036L92,285.21008403361344C56,285.21008403361344 56,285.21008403361344 20,285.21008403361344Z" style="stroke: rgb(0, 0, 0); stroke-opacity: 1; fill: rgb(0, 0, 0); fill-opacity: 1; stroke-width: 1; opacity: 1;"/><path class="sankey-link" d="M112,0C148,0 148,0 184,0L184,15.462184873949582C148,15.462184873949582 148,15.462184873949582 112,15.462184873949582Z" style="stroke: rgb(68, 68, 68); stroke-opacity: 1; fill: rgb(127, 60, 141); fill-opacity: 0.4; stroke-width: 0; opacity: 1;"/><path class="sankey-link" d="M112,55.012903649561466C148,55.012903649561466 148,54.99325377342432 184,54.99325377342432L184,71.79997646249996C148,71.79997646249996 148,71.8196263386371 112,71.8196263386371Z" style="stroke: rgb(68, 68, 68); stroke-opacity: 1; fill: rgb(17, 165, 121); fill-opacity: 0.4; stroke-width: 0; opacity: 1;"/><path class="sankey-link" d="M112,71.8196263386371C148,71.8196263386371 148,71.79997646249996 184,71.79997646249996L184,87.26216133644954C148,87.26216133644954 148,87.28181121258667 112,87.28181121258667Z" style="stroke: rgb(68, 68, 68); stroke-opacity: 1; fill: rgb(57, 105, 172); fill-opacity: 0.4; stroke-width: 0; opacity: 1;"/><path class="sankey-link" d="M112,152.83555425271234C148,152.83555425271234 148,154.74626121966378 184,154.74626121966378L184,172.22525281630243C148,172.22525281630243 148,170.314545849351 112,170.314545849351Z" style="stroke: rgb(68, 68, 68); stroke-opacity: 1; fill: rgb(242, 183, 1); fill-opacity: 0.4; stroke-width: 0; opacity: 1;"/><path class="sankey-link" d="M112,170.314545849351C148,170.314545849351 148,172.22525281630243 184,172.22525281630243L184,187.687437690252C148,187.687437690252 148,185.77673072330057 112,185.77673072330057Z" style="stroke: rgb(68, 68, 68); stroke-opacity: 1; fill: rgb(231, 63, 116); fill-opacity: 0.4; stroke-width: 0; opacity: 1;"/><path class="sankey-link" d="M112,185.77673072330057C148,185.77673072330057 148,187.687437690252 184,187.687437690252L184,201.80508474907555C148,201.80508474907555 148,199.8943777821241 112,199.8943777821241Z" style="stroke: rgb(68, 68, 68); stroke-opacity: 1; fill: rgb(128, 186, 90); fill-opacity: 0.4; stroke-width: 0; opacity: 1;"/><path class="sankey-link" d="M112,87.28181121258667C148,87.28181121258667 148,87.26216133644954 184,87.26216133644954L184,101.37980839527307C148,101.37980839527307 148,101.39945827141021 112,101.39945827141021Z" style="stroke: rgb(68, 68, 68); stroke-opacity: 1; fill: rgb(230, 131, 16); fill-opacity: 0.4; stroke-width: 0; opacity: 1;"/><path class="sankey-link" d="M112,233.61344537815114C148,233.61344537815114 148,203.82189147176462 184,203.82189147176462L184,204.49416037932764C148,204.49416037932764 148,234.28571428571416 112,234.28571428571416Z" style="stroke: rgb(0, 134, 149); stroke-opacity: 0.4; fill: rgb(0, 134, 149); fill-opacity: 0.4; stroke-width: 1; opacity: 1;"/><path class="sankey-link" d="M112,234.28571428571416C148,234.28571428571416 148,244.55973693825348 184,244.55973693825348L184,258.677383997077C148,258.677383997077 148,248.4033613445377 112,248.4033613445377Z" style="stroke: rgb(68, 68, 68); stroke-opacity: 1; fill: rgb(0, 134, 149); fill-opacity: 0.4; stroke-width: 0; opacity: 1;"/><path class="sankey-link" d="M112,305.21008403361344C148,305.21008403361344 148,305.21008403361344 184,305.21008403361344L184,319.327731092437C148,319.327731092437 148,319.327731092437 112,319.327731092437Z" style="stroke: rgb(68, 68, 68); stroke-opacity: 1; fill: rgb(207, 28, 144); fill-opacity: 0.4; stroke-width: 0; opacity: 1;"/><path class="sankey-link" d="M112,269.0756302521008C148,269.0756302521008 148,259.34965290464004 184,259.34965290464004L184,274.8118377785896C148,274.8118377785896 148,284.53781512605036 112,284.53781512605036Z" style="stroke: rgb(68, 68, 68); stroke-opacity: 1; fill: rgb(249, 123, 114); fill-opacity: 0.4; stroke-width: 0; opacity: 1;"/><path class="sankey-link" d="M112,15.462184873949582C148,15.462184873949582 148,15.462184873949582 184,15.462184873949582L184,16.134453781512608C148,16.134453781512608 148,16.134453781512608 112,16.134453781512608Z" style="stroke: rgb(0, 0, 0); stroke-opacity: 1; fill: rgb(0, 0, 0); fill-opacity: 1; stroke-width: 1; opacity: 1;"/><path class="sankey-link" d="M112,101.39945827141021C148,101.39945827141021 148,101.37980839527307 184,101.37980839527307L184,103.39661511796214C148,103.39661511796214 148,103.41626499409928 112,103.41626499409928Z" style="stroke: rgb(68, 68, 68); stroke-opacity: 1; fill: rgb(0, 0, 0); fill-opacity: 1; stroke-width: 0; opacity: 1;"/><path class="sankey-link" d="M112,248.4033613445377C148,248.4033613445377 148,258.677383997077 184,258.677383997077L184,259.3496529046401C148,259.3496529046401 148,249.07563025210072 112,249.07563025210072Z" style="stroke: rgb(0, 0, 0); stroke-opacity: 1; fill: rgb(0, 0, 0); fill-opacity: 1; stroke-width: 1; opacity: 1;"/><path class="sankey-link" d="M112,319.327731092437C148,319.327731092437 148,319.327731092437 184,319.327731092437L184,320.00000000000006C148,320.00000000000006 148,320.00000000000006 112,320.00000000000006Z" style="stroke: rgb(0, 0, 0); stroke-opacity: 1; fill: rgb(0, 0, 0); fill-opacity: 1; stroke-width: 1; opacity: 1;"/><path class="sankey-link" d="M112,284.53781512605036C148,284.53781512605036 148,274.8118377785896 184,274.8118377785896L184,275.4841066861527C148,275.4841066861527 148,285.21008403361344 112,285.21008403361344Z" style="stroke: rgb(0, 0, 0); stroke-opacity: 1; fill: rgb(0, 0, 0); fill-opacity: 1; stroke-width: 1; opacity: 1;"/><path class="sankey-link" d="M112,199.8943777821241C148,199.8943777821241 148,201.80508474907555 184,201.80508474907555L184,203.82189147176462C148,203.82189147176462 148,201.91118450481318 112,201.91118450481318Z" style="stroke: rgb(68, 68, 68); stroke-opacity: 1; fill: rgb(0, 0, 0); fill-opacity: 1; stroke-width: 0; opacity: 1;"/></g><g class="sankey-node-set" style="cursor: move;"><g class="sankey-node" transform="translate(0.000,-0.000)" style="opacity: 1;"><rect class="node-rect" width="20" height="16.134453781512605" style="stroke-width: 0.5; stroke: rgb(68, 68, 68); stroke-opacity: 1; fill: rgb(0, 0, 0); fill-opacity: 0.1;"/><text class="node-label" data-notex="1" x="0" y="0" text-anchor="start" transform="translate(23.25,12.267226890756302)" style="cursor: default; font-family: 'Open Sans', verdana, arial, sans-serif; font-size: 12px; fill: rgb(42, 63, 95); fill-opacity: 1; text-shadow: rgb(255, 255, 255) 1px 1px 1px, rgb(255, 255, 255) -1px -1px 1px, rgb(255, 255, 255) 1px -1px 1px, rgb(255, 255, 255) -1px 1px 1px; white-space: pre;"></text></g><g class="sankey-node" transform="translate(92.000,0.000)" style="opacity: 1;"><rect class="node-rect" width="20" height="16.134453781512605" style="stroke-width: 0.5; stroke: rgb(68, 68, 68); stroke-opacity: 1; fill: rgb(0, 0, 0); fill-opacity: 0.1;"/><text class="node-label" data-notex="1" x="0" y="0" text-anchor="start" transform="translate(23.25,12.267226890756302)" style="cursor: default; font-family: 'Open Sans', verdana, arial, sans-serif; font-size: 12px; fill: rgb(42, 63, 95); fill-opacity: 1; text-shadow: rgb(255, 255, 255) 1px 1px 1px, rgb(255, 255, 255) -1px -1px 1px, rgb(255, 255, 255) 1px -1px 1px, rgb(255, 255, 255) -1px 1px 1px; white-space: pre;"></text></g><g class="sankey-node" transform="translate(184.000,0.000)" style="opacity: 1;"><rect class="node-rect" width="20" height="16.134453781512605" style="stroke-width: 0.5; stroke: rgb(68, 68, 68); stroke-opacity: 1; fill: rgb(0, 0, 0); fill-opacity: 0.1;"/><text class="node-label" data-notex="1" x="0" y="0" text-anchor="end" transform="translate(-3.25,12.267226890756302)" style="cursor: default; font-family: 'Open Sans', verdana, arial, sans-serif; font-size: 12px; fill: rgb(42, 63, 95); fill-opacity: 1; text-shadow: rgb(255, 255, 255) 1px 1px 1px, rgb(255, 255, 255) -1px -1px 1px, rgb(255, 255, 255) 1px -1px 1px, rgb(255, 255, 255) -1px 1px 1px; white-space: pre;"></text></g><g class="sankey-node" transform="translate(0.000,36.134)" style="opacity: 1;"><rect class="node-rect" width="20" height="17.478991596638686" style="stroke-width: 0.5; stroke: rgb(68, 68, 68); stroke-opacity: 1; fill: rgb(0, 0, 0); fill-opacity: 0.1;"/><text class="node-label" data-notex="1" x="0" y="0" text-anchor="start" transform="translate(23.25,12.939495798319342)" style="cursor: default; font-family: 'Open Sans', verdana, arial, sans-serif; font-size: 12px; fill: rgb(42, 63, 95); fill-opacity: 1; text-shadow: rgb(255, 255, 255) 1px 1px 1px, rgb(255, 255, 255) -1px -1px 1px, rgb(255, 255, 255) 1px -1px 1px, rgb(255, 255, 255) -1px 1px 1px; white-space: pre;"></text></g><g class="sankey-node" transform="translate(92.000,55.013)" style="opacity: 1;"><rect class="node-rect" width="20" height="48.4033613445378" style="stroke-width: 0.5; stroke: rgb(68, 68, 68); stroke-opacity: 1; fill: rgb(0, 0, 0); fill-opacity: 0.1;"/><text class="node-label" data-notex="1" x="0" y="0" text-anchor="start" transform="translate(23.25,28.4016806722689)" style="cursor: default; font-family: 'Open Sans', verdana, arial, sans-serif; font-size: 12px; fill: rgb(42, 63, 95); fill-opacity: 1; text-shadow: rgb(255, 255, 255) 1px 1px 1px, rgb(255, 255, 255) -1px -1px 1px, rgb(255, 255, 255) 1px -1px 1px, rgb(255, 255, 255) -1px 1px 1px; white-space: pre;"></text></g><g class="sankey-node" transform="translate(184.000,54.993)" style="opacity: 1;"><rect class="node-rect" width="20" height="48.403361344537764" style="stroke-width: 0.5; stroke: rgb(68, 68, 68); stroke-opacity: 1; fill: rgb(0, 0, 0); fill-opacity: 0.1;"/><text class="node-label" data-notex="1" x="0" y="0" text-anchor="end" transform="translate(-3.25,28.40168067226888)" style="cursor: default; font-family: 'Open Sans', verdana, arial, sans-serif; font-size: 12px; fill: rgb(42, 63, 95); fill-opacity: 1; text-shadow: rgb(255, 255, 255) 1px 1px 1px, rgb(255, 255, 255) -1px -1px 1px, rgb(255, 255, 255) 1px -1px 1px, rgb(255, 255, 255) -1px 1px 1px; white-space: pre;"></text></g><g class="sankey-node" transform="translate(0.000,73.613)" style="opacity: 1;"><rect class="node-rect" width="20" height="16.13445378151262" style="stroke-width: 0.5; stroke: rgb(68, 68, 68); stroke-opacity: 1; fill: rgb(0, 0, 0); fill-opacity: 0.1;"/><text class="node-label" data-notex="1" x="0" y="0" text-anchor="start" transform="translate(23.25,12.267226890756309)" style="cursor: default; font-family: 'Open Sans', verdana, arial, sans-serif; font-size: 12px; fill: rgb(42, 63, 95); fill-opacity: 1; text-shadow: rgb(255, 255, 255) 1px 1px 1px, rgb(255, 255, 255) -1px -1px 1px, rgb(255, 255, 255) 1px -1px 1px, rgb(255, 255, 255) -1px 1px 1px; white-space: pre;"></text></g><g class="sankey-node" transform="translate(0.000,195.462)" style="opacity: 1;"><rect class="node-rect" width="20" height="18.151260504201673" style="stroke-width: 0.5; stroke: rgb(68, 68, 68); stroke-opacity: 1; fill: rgb(0, 0, 0); fill-opacity: 0.1;"/><text class="node-label" data-notex="1" x="0" y="0" text-anchor="start" transform="translate(23.25,13.275630252100836)" style="cursor: default; font-family: 'Open Sans', verdana, arial, sans-serif; font-size: 12px; fill: rgb(42, 63, 95); fill-opacity: 1; text-shadow: rgb(255, 255, 255) 1px 1px 1px, rgb(255, 255, 255) -1px -1px 1px, rgb(255, 255, 255) 1px -1px 1px, rgb(255, 255, 255) -1px 1px 1px; white-space: pre;"></text></g><g class="sankey-node" transform="translate(92.000,152.836)" style="opacity: 1;"><rect class="node-rect" width="20" height="49.07563025210084" style="stroke-width: 0.5; stroke: rgb(68, 68, 68); stroke-opacity: 1; fill: rgb(0, 0, 0); fill-opacity: 0.1;"/><text class="node-label" data-notex="1" x="0" y="0" text-anchor="start" transform="translate(23.25,28.737815126050418)" style="cursor: default; font-family: 'Open Sans', verdana, arial, sans-serif; font-size: 12px; fill: rgb(42, 63, 95); fill-opacity: 1; text-shadow: rgb(255, 255, 255) 1px 1px 1px, rgb(255, 255, 255) -1px -1px 1px, rgb(255, 255, 255) 1px -1px 1px, rgb(255, 255, 255) -1px 1px 1px; white-space: pre;"></text></g><g class="sankey-node" transform="translate(184.000,154.746)" style="opacity: 1;"><rect class="node-rect" width="20" height="49.74789915966389" style="stroke-width: 0.5; stroke: rgb(68, 68, 68); stroke-opacity: 1; fill: rgb(0, 0, 0); fill-opacity: 0.1;"/><text class="node-label" data-notex="1" x="0" y="0" text-anchor="end" transform="translate(-3.25,29.073949579831943)" style="cursor: default; font-family: 'Open Sans', verdana, arial, sans-serif; font-size: 12px; fill: rgb(42, 63, 95); fill-opacity: 1; text-shadow: rgb(255, 255, 255) 1px 1px 1px, rgb(255, 255, 255) -1px -1px 1px, rgb(255, 255, 255) 1px -1px 1px, rgb(255, 255, 255) -1px 1px 1px; white-space: pre;"></text></g><g class="sankey-node" transform="translate(0.000,144.538)" style="opacity: 1;"><rect class="node-rect" width="20" height="30.924369747899163" style="stroke-width: 0.5; stroke: rgb(68, 68, 68); stroke-opacity: 1; fill: rgb(0, 0, 0); fill-opacity: 0.1;"/><text class="node-label" data-notex="1" x="0" y="0" text-anchor="start" transform="translate(23.25,19.66218487394958)" style="cursor: default; font-family: 'Open Sans', verdana, arial, sans-serif; font-size: 12px; fill: rgb(42, 63, 95); fill-opacity: 1; text-shadow: rgb(255, 255, 255) 1px 1px 1px, rgb(255, 255, 255) -1px -1px 1px, rgb(255, 255, 255) 1px -1px 1px, rgb(255, 255, 255) -1px 1px 1px; white-space: pre;"></text></g><g class="sankey-node" transform="translate(0.000,109.748)" style="opacity: 1;"><rect class="node-rect" width="20" height="14.789915966386559" style="stroke-width: 0.5; stroke: rgb(68, 68, 68); stroke-opacity: 1; fill: rgb(0, 0, 0); fill-opacity: 0.1;"/><text class="node-label" data-notex="1" x="0" y="0" text-anchor="start" transform="translate(23.25,11.594957983193279)" style="cursor: default; font-family: 'Open Sans', verdana, arial, sans-serif; font-size: 12px; fill: rgb(42, 63, 95); fill-opacity: 1; text-shadow: rgb(255, 255, 255) 1px 1px 1px, rgb(255, 255, 255) -1px -1px 1px, rgb(255, 255, 255) 1px -1px 1px, rgb(255, 255, 255) -1px 1px 1px; white-space: pre;"></text></g><g class="sankey-node" transform="translate(0.000,233.613)" style="opacity: 1;"><rect class="node-rect" width="20" height="15.462184873949695" style="stroke-width: 0.5; stroke: rgb(68, 68, 68); stroke-opacity: 1; fill: rgb(0, 0, 0); fill-opacity: 0.1;"/><text class="node-label" data-notex="1" x="0" y="0" text-anchor="start" transform="translate(23.25,11.931092436974847)" style="cursor: default; font-family: 'Open Sans', verdana, arial, sans-serif; font-size: 12px; fill: rgb(42, 63, 95); fill-opacity: 1; text-shadow: rgb(255, 255, 255) 1px 1px 1px, rgb(255, 255, 255) -1px -1px 1px, rgb(255, 255, 255) 1px -1px 1px, rgb(255, 255, 255) -1px 1px 1px; white-space: pre;"></text></g><g class="sankey-node" transform="translate(92.000,233.613)" style="opacity: 1;"><rect class="node-rect" width="20" height="15.462184873949582" style="stroke-width: 0.5; stroke: rgb(68, 68, 68); stroke-opacity: 1; fill: rgb(0, 0, 0); fill-opacity: 0.1;"/><text class="node-label" data-notex="1" x="0" y="0" text-anchor="start" transform="translate(23.25,11.93109243697479)" style="cursor: default; font-family: 'Open Sans', verdana, arial, sans-serif; font-size: 12px; fill: rgb(42, 63, 95); fill-opacity: 1; text-shadow: rgb(255, 255, 255) 1px 1px 1px, rgb(255, 255, 255) -1px -1px 1px, rgb(255, 255, 255) 1px -1px 1px, rgb(255, 255, 255) -1px 1px 1px; white-space: pre;"></text></g><g class="sankey-node" transform="translate(184.000,244.560)" style="opacity: 1;"><rect class="node-rect" width="20" height="30.92436974789922" style="stroke-width: 0.5; stroke: rgb(68, 68, 68); stroke-opacity: 1; fill: rgb(0, 0, 0); fill-opacity: 0.1;"/><text class="node-label" data-notex="1" x="0" y="0" text-anchor="end" transform="translate(-3.25,19.66218487394961)" style="cursor: default; font-family: 'Open Sans', verdana, arial, sans-serif; font-size: 12px; fill: rgb(42, 63, 95); fill-opacity: 1; text-shadow: rgb(255, 255, 255) 1px 1px 1px, rgb(255, 255, 255) -1px -1px 1px, rgb(255, 255, 255) 1px -1px 1px, rgb(255, 255, 255) -1px 1px 1px; white-space: pre;"></text></g><g class="sankey-node" transform="translate(0.000,305.210)" style="opacity: 1;"><rect class="node-rect" width="20" height="14.789915966386559" style="stroke-width: 0.5; stroke: rgb(68, 68, 68); stroke-opacity: 1; fill: rgb(0, 0, 0); fill-opacity: 0.1;"/><text class="node-label" data-notex="1" x="0" y="0" text-anchor="start" transform="translate(23.25,11.594957983193279)" style="cursor: default; font-family: 'Open Sans', verdana, arial, sans-serif; font-size: 12px; fill: rgb(42, 63, 95); fill-opacity: 1; text-shadow: rgb(255, 255, 255) 1px 1px 1px, rgb(255, 255, 255) -1px -1px 1px, rgb(255, 255, 255) 1px -1px 1px, rgb(255, 255, 255) -1px 1px 1px; white-space: pre;"></text></g><g class="sankey-node" transform="translate(92.000,305.210)" style="opacity: 1;"><rect class="node-rect" width="20" height="14.789915966386559" style="stroke-width: 0.5; stroke: rgb(68, 68, 68); stroke-opacity: 1; fill: rgb(0, 0, 0); fill-opacity: 0.1;"/><text class="node-label" data-notex="1" x="0" y="0" text-anchor="start" transform="translate(23.25,11.594957983193279)" style="cursor: default; font-family: 'Open Sans', verdana, arial, sans-serif; font-size: 12px; fill: rgb(42, 63, 95); fill-opacity: 1; text-shadow: rgb(255, 255, 255) 1px 1px 1px, rgb(255, 255, 255) -1px -1px 1px, rgb(255, 255, 255) 1px -1px 1px, rgb(255, 255, 255) -1px 1px 1px; white-space: pre;"></text></g><g class="sankey-node" transform="translate(184.000,305.210)" style="opacity: 1;"><rect class="node-rect" width="20" height="14.789915966386559" style="stroke-width: 0.5; stroke: rgb(68, 68, 68); stroke-opacity: 1; fill: rgb(0, 0, 0); fill-opacity: 0.1;"/><text class="node-label" data-notex="1" x="0" y="0" text-anchor="end" transform="translate(-3.25,11.594957983193279)" style="cursor: default; font-family: 'Open Sans', verdana, arial, sans-serif; font-size: 12px; fill: rgb(42, 63, 95); fill-opacity: 1; text-shadow: rgb(255, 255, 255) 1px 1px 1px, rgb(255, 255, 255) -1px -1px 1px, rgb(255, 255, 255) 1px -1px 1px, rgb(255, 255, 255) -1px 1px 1px; white-space: pre;"></text></g><g class="sankey-node" transform="translate(0.000,269.076)" style="opacity: 1;"><rect class="node-rect" width="20" height="16.13445378151266" style="stroke-width: 0.5; stroke: rgb(68, 68, 68); stroke-opacity: 1; fill: rgb(0, 0, 0); fill-opacity: 0.1;"/><text class="node-label" data-notex="1" x="0" y="0" text-anchor="start" transform="translate(23.25,12.26722689075633)" style="cursor: default; font-family: 'Open Sans', verdana, arial, sans-serif; font-size: 12px; fill: rgb(42, 63, 95); fill-opacity: 1; text-shadow: rgb(255, 255, 255) 1px 1px 1px, rgb(255, 255, 255) -1px -1px 1px, rgb(255, 255, 255) 1px -1px 1px, rgb(255, 255, 255) -1px 1px 1px; white-space: pre;"></text></g><g class="sankey-node" transform="translate(92.000,269.076)" style="opacity: 1;"><rect class="node-rect" width="20" height="16.13445378151266" style="stroke-width: 0.5; stroke: rgb(68, 68, 68); stroke-opacity: 1; fill: rgb(0, 0, 0); fill-opacity: 0.1;"/><text class="node-label" data-notex="1" x="0" y="0" text-anchor="start" transform="translate(23.25,12.26722689075633)" style="cursor: default; font-family: 'Open Sans', verdana, arial, sans-serif; font-size: 12px; fill: rgb(42, 63, 95); fill-opacity: 1; text-shadow: rgb(255, 255, 255) 1px 1px 1px, rgb(255, 255, 255) -1px -1px 1px, rgb(255, 255, 255) 1px -1px 1px, rgb(255, 255, 255) -1px 1px 1px; white-space: pre;"></text></g></g></g><defs id="topdefs-f856f6"><g class="clips"/><clipPath id="legendf856f6"><rect width="100" height="238" x="0" y="0"/></clipPath></defs><g class="layer-above"><g class="imagelayer"/><g class="shapelayer"/></g><g class="infolayer"><g class="legend" pointer-events="all" transform="translate(288.08000000000004,100)"><rect class="bg" shape-rendering="crispEdges" width="100" height="238" x="0" y="0" style="stroke: rgb(68, 68, 68); stroke-opacity: 1; fill: rgb(0, 0, 0); fill-opacity: 0; stroke-width: 0px;"/><g class="scrollbox" transform="" clip-path="url(#legendf856f6)"><text class="legendtitletext" text-anchor="start" x="2" y="18.2" style="font-family: 'Open Sans', verdana, arial, sans-serif; font-size: 14px; fill: rgb(42, 63, 95); fill-opacity: 1; white-space: pre;">Class</text><g class="groups"><g class="traces" transform="translate(0,32.7)" style="opacity: 1;"><text class="legendtext" text-anchor="start" x="40" y="4.680000000000001" style="font-family: 'Open Sans', verdana, arial, sans-serif; font-size: 12px; fill: rgb(42, 63, 95); fill-opacity: 1; white-space: pre;">1A</text><g class="layers" style="opacity: 1;"><g class="legendfill"/><g class="legendlines"/><g class="legendsymbols"><g class="legendpoints"><path class="scatterpts" transform="translate(20,0)" d="M6,0A6,6 0 1,1 0,-6A6,6 0 0,1 6,0Z" style="opacity: 1; stroke-width: 0px; fill: rgb(127, 60, 141); fill-opacity: 0.4;"/></g></g></g><rect class="legendtoggle" x="0" y="-9.5" width="94.125" height="19" style="fill: rgb(0, 0, 0); fill-opacity: 0;"/></g><g class="traces" transform="translate(0,51.7)" style="opacity: 1;"><text class="legendtext" text-anchor="start" x="40" y="4.680000000000001" style="font-family: 'Open Sans', verdana, arial, sans-serif; font-size: 12px; fill: rgb(42, 63, 95); fill-opacity: 1; white-space: pre;">1B</text><g class="layers" style="opacity: 1;"><g class="legendfill"/><g class="legendlines"/><g class="legendsymbols"><g class="legendpoints"><path class="scatterpts" transform="translate(20,0)" d="M6,0A6,6 0 1,1 0,-6A6,6 0 0,1 6,0Z" style="opacity: 1; stroke-width: 0px; fill: rgb(17, 165, 121); fill-opacity: 0.4;"/></g></g></g><rect class="legendtoggle" x="0" y="-9.5" width="94.125" height="19" style="fill: rgb(0, 0, 0); fill-opacity: 0;"/></g><g class="traces" transform="translate(0,70.7)" style="opacity: 1;"><text class="legendtext" text-anchor="start" x="40" y="4.680000000000001" style="font-family: 'Open Sans', verdana, arial, sans-serif; font-size: 12px; fill: rgb(42, 63, 95); fill-opacity: 1; white-space: pre;">2A</text><g class="layers" style="opacity: 1;"><g class="legendfill"/><g class="legendlines"/><g class="legendsymbols"><g class="legendpoints"><path class="scatterpts" transform="translate(20,0)" d="M6,0A6,6 0 1,1 0,-6A6,6 0 0,1 6,0Z" style="opacity: 1; stroke-width: 0px; fill: rgb(57, 105, 172); fill-opacity: 0.4;"/></g></g></g><rect class="legendtoggle" x="0" y="-9.5" width="94.125" height="19" style="fill: rgb(0, 0, 0); fill-opacity: 0;"/></g><g class="traces" transform="translate(0,89.7)" style="opacity: 1;"><text class="legendtext" text-anchor="start" x="40" y="4.680000000000001" style="font-family: 'Open Sans', verdana, arial, sans-serif; font-size: 12px; fill: rgb(42, 63, 95); fill-opacity: 1; white-space: pre;">2B</text><g class="layers" style="opacity: 1;"><g class="legendfill"/><g class="legendlines"/><g class="legendsymbols"><g class="legendpoints"><path class="scatterpts" transform="translate(20,0)" d="M6,0A6,6 0 1,1 0,-6A6,6 0 0,1 6,0Z" style="opacity: 1; stroke-width: 0px; fill: rgb(242, 183, 1); fill-opacity: 0.4;"/></g></g></g><rect class="legendtoggle" x="0" y="-9.5" width="94.125" height="19" style="fill: rgb(0, 0, 0); fill-opacity: 0;"/></g><g class="traces" transform="translate(0,108.7)" style="opacity: 1;"><text class="legendtext" text-anchor="start" x="40" y="4.680000000000001" style="font-family: 'Open Sans', verdana, arial, sans-serif; font-size: 12px; fill: rgb(42, 63, 95); fill-opacity: 1; white-space: pre;">3A</text><g class="layers" style="opacity: 1;"><g class="legendfill"/><g class="legendlines"/><g class="legendsymbols"><g class="legendpoints"><path class="scatterpts" transform="translate(20,0)" d="M6,0A6,6 0 1,1 0,-6A6,6 0 0,1 6,0Z" style="opacity: 1; stroke-width: 0px; fill: rgb(231, 63, 116); fill-opacity: 0.4;"/></g></g></g><rect class="legendtoggle" x="0" y="-9.5" width="94.125" height="19" style="fill: rgb(0, 0, 0); fill-opacity: 0;"/></g><g class="traces" transform="translate(0,127.7)" style="opacity: 1;"><text class="legendtext" text-anchor="start" x="40" y="4.680000000000001" style="font-family: 'Open Sans', verdana, arial, sans-serif; font-size: 12px; fill: rgb(42, 63, 95); fill-opacity: 1; white-space: pre;">3B</text><g class="layers" style="opacity: 1;"><g class="legendfill"/><g class="legendlines"/><g class="legendsymbols"><g class="legendpoints"><path class="scatterpts" transform="translate(20,0)" d="M6,0A6,6 0 1,1 0,-6A6,6 0 0,1 6,0Z" style="opacity: 1; stroke-width: 0px; fill: rgb(128, 186, 90); fill-opacity: 0.4;"/></g></g></g><rect class="legendtoggle" x="0" y="-9.5" width="94.125" height="19" style="fill: rgb(0, 0, 0); fill-opacity: 0;"/></g><g class="traces" transform="translate(0,146.7)" style="opacity: 1;"><text class="legendtext" text-anchor="start" x="40" y="4.680000000000001" style="font-family: 'Open Sans', verdana, arial, sans-serif; font-size: 12px; fill: rgb(42, 63, 95); fill-opacity: 1; white-space: pre;">4A</text><g class="layers" style="opacity: 1;"><g class="legendfill"/><g class="legendlines"/><g class="legendsymbols"><g class="legendpoints"><path class="scatterpts" transform="translate(20,0)" d="M6,0A6,6 0 1,1 0,-6A6,6 0 0,1 6,0Z" style="opacity: 1; stroke-width: 0px; fill: rgb(230, 131, 16); fill-opacity: 0.4;"/></g></g></g><rect class="legendtoggle" x="0" y="-9.5" width="94.125" height="19" style="fill: rgb(0, 0, 0); fill-opacity: 0;"/></g><g class="traces" transform="translate(0,165.7)" style="opacity: 1;"><text class="legendtext" text-anchor="start" x="40" y="4.680000000000001" style="font-family: 'Open Sans', verdana, arial, sans-serif; font-size: 12px; fill: rgb(42, 63, 95); fill-opacity: 1; white-space: pre;">4B</text><g class="layers" style="opacity: 1;"><g class="legendfill"/><g class="legendlines"/><g class="legendsymbols"><g class="legendpoints"><path class="scatterpts" transform="translate(20,0)" d="M6,0A6,6 0 1,1 0,-6A6,6 0 0,1 6,0Z" style="opacity: 1; stroke-width: 0px; fill: rgb(0, 134, 149); fill-opacity: 0.4;"/></g></g></g><rect class="legendtoggle" x="0" y="-9.5" width="94.125" height="19" style="fill: rgb(0, 0, 0); fill-opacity: 0;"/></g><g class="traces" transform="translate(0,184.7)" style="opacity: 1;"><text class="legendtext" text-anchor="start" x="40" y="4.680000000000001" style="font-family: 'Open Sans', verdana, arial, sans-serif; font-size: 12px; fill: rgb(42, 63, 95); fill-opacity: 1; white-space: pre;">5A</text><g class="layers" style="opacity: 1;"><g class="legendfill"/><g class="legendlines"/><g class="legendsymbols"><g class="legendpoints"><path class="scatterpts" transform="translate(20,0)" d="M6,0A6,6 0 1,1 0,-6A6,6 0 0,1 6,0Z" style="opacity: 1; stroke-width: 0px; fill: rgb(207, 28, 144); fill-opacity: 0.4;"/></g></g></g><rect class="legendtoggle" x="0" y="-9.5" width="94.125" height="19" style="fill: rgb(0, 0, 0); fill-opacity: 0;"/></g><g class="traces" transform="translate(0,203.7)" style="opacity: 1;"><text class="legendtext" text-anchor="start" x="40" y="4.680000000000001" style="font-family: 'Open Sans', verdana, arial, sans-serif; font-size: 12px; fill: rgb(42, 63, 95); fill-opacity: 1; white-space: pre;">5B</text><g class="layers" style="opacity: 1;"><g class="legendfill"/><g class="legendlines"/><g class="legendsymbols"><g class="legendpoints"><path class="scatterpts" transform="translate(20,0)" d="M6,0A6,6 0 1,1 0,-6A6,6 0 0,1 6,0Z" style="opacity: 1; stroke-width: 0px; fill: rgb(249, 123, 114); fill-opacity: 0.4;"/></g></g></g><rect class="legendtoggle" x="0" y="-9.5" width="94.125" height="19" style="fill: rgb(0, 0, 0); fill-opacity: 0;"/></g><g class="traces" transform="translate(0,222.7)" style="opacity: 1;"><text class="legendtext" text-anchor="start" x="40" y="4.680000000000001" style="font-family: 'Open Sans', verdana, arial, sans-serif; font-size: 12px; fill: rgb(42, 63, 95); fill-opacity: 1; white-space: pre;">Teachers</text><g class="layers" style="opacity: 1;"><g class="legendfill"/><g class="legendlines"/><g class="legendsymbols"><g class="legendpoints"><path class="scatterpts" transform="translate(20,0)" d="M6,0A6,6 0 1,1 0,-6A6,6 0 0,1 6,0Z" style="opacity: 1; stroke-width: 0px; fill: rgb(0, 0, 0); fill-opacity: 1;"/></g></g></g><rect class="legendtoggle" x="0" y="-9.5" width="94.125" height="19" style="fill: rgb(0, 0, 0); fill-opacity: 0;"/></g></g></g><rect class="scrollbar" rx="20" ry="3" width="0" height="0" x="0" y="0" style="fill: rgb(128, 139, 164); fill-opacity: 1;"/></g><g class="g-gtitle"/><g class="first-render"/></g></svg>